<svg width="56" height="23" viewBox="0 0 56 23" fill="none" xmlns="http://www.w3.org/2000/svg">
<g clip-path="url(#clip0_7_13)">
<path fill-rule="evenodd" clip-rule="evenodd" d="M48.2921 11.1918C46.9619 11.1918 45.877 12.1069 45.7123 13.3676C45.5453 14.6488 46.3726 15.5433 47.7245 15.5433C49.0974 15.5433 50.1344 14.669 50.3043 13.3676C50.471 12.0867 49.6437 11.1918 48.2921 11.1918ZM47.4282 17.8127C44.0682 17.8127 42.0454 16.0134 42.3949 13.3354C42.7335 10.7414 45.3418 8.8588 48.5969 8.8588C51.3927 8.8588 54.0331 10.243 53.6295 13.3354C53.2747 16.0555 50.8405 17.8126 47.4281 17.8126M23.5588 11.1917C22.2284 11.1917 21.1436 12.1069 20.979 13.3676C20.8119 14.6488 21.6392 15.5433 22.9911 15.5433C24.3637 15.5433 25.4003 14.669 25.5704 13.3676C25.7377 12.0867 24.9107 11.1917 23.5588 11.1917ZM22.6948 17.8127C19.3345 17.8127 17.3123 16.0134 17.6618 13.3354C18.0001 10.7414 20.6084 8.8588 23.8634 8.8588C26.6593 8.8588 29.2998 10.243 28.8961 13.3354C28.5413 16.0555 26.1073 17.8127 22.6948 17.8127ZM13.0055 17.5694L13.6673 12.2569C13.6953 11.9971 13.5848 11.7971 13.3695 11.5821C13.1431 11.3554 12.8097 11.2404 12.3793 11.2404C11.3408 11.2404 10.8679 11.8577 10.7719 12.4352L10.1015 17.5694H6.77396L7.43591 12.2569C7.4606 12.0101 7.35344 11.7971 7.13847 11.5821C6.91193 11.3554 6.57873 11.2404 6.14829 11.2404C5.089 11.2404 4.60651 11.8987 4.51538 12.4622L3.84873 17.5694H0.521564L1.37735 11.0103H0L0.253273 9.06981H4.04804L4.70425 10.2559L4.9812 9.91166C5.01556 9.86957 5.86142 8.8588 7.59627 8.8588C9.5158 8.8588 9.91645 9.93209 9.93249 9.97798L10.066 10.3564L10.3923 10.0302C10.4399 9.98289 11.5989 8.8588 13.8487 8.8588C16.0028 8.8588 17.2985 10.0884 17.1578 11.2372L16.3325 17.5694H13.0055ZM35.0192 15.5433C33.6676 15.5433 32.8401 14.6488 33.0073 13.3677C33.1717 12.107 34.2565 11.1918 35.5871 11.1918C36.9385 11.1918 37.766 12.0866 37.5989 13.3677C37.4291 14.6689 36.3924 15.5433 35.0192 15.5433ZM38.7187 9.06345L38.6159 9.80001C37.9709 9.22132 37.067 8.8588 35.8915 8.8588C32.6365 8.8588 30.0282 10.7416 29.6895 13.3355C29.3403 16.0132 31.3629 17.8127 34.7232 17.8127C35.8751 17.8127 36.8414 17.4996 37.6132 16.9907L37.5582 17.3844C37.5582 17.3844 37.5302 18.1104 36.9118 18.6771C36.2674 19.2675 34.9383 20.0065 31.8212 20.0065L31.4231 22.9563C35.0911 22.9563 37.7375 22.1692 39.3312 20.7088C40.7259 19.4308 40.896 18.0243 40.9107 17.5377L42.0778 9.05898L38.7187 9.06345Z" fill="#7AB800"/>
<path fill-rule="evenodd" clip-rule="evenodd" d="M37.8621 0C32.2751 0 28.6142 2.3316 25.2749 5.45133C20.4179 5.82425 17.1659 9.11671 17.9334 8.67022C20.0216 7.27314 22.3421 6.49929 25.7666 6.49929C25.9298 6.49929 30.2328 1.18584 37.7756 1.18584C41.9756 1.18584 46.5332 3.23831 48.4983 6.61317C53.0246 6.61317 56.497 9.2719 55.301 13.3294C55.1502 13.8028 55.2473 13.8228 55.478 13.3615C55.9265 12.4622 57.7905 6.66888 49.3124 5.74017C47.6148 2.64947 42.7544 0 37.8621 0Z" fill="#003478"/>
</g>
<defs>
<clipPath id="clip0_7_13">
<rect width="56" height="23" fill="white"/>
</clipPath>
</defs>
</svg>
