<svg width="1579" height="397" viewBox="0 0 1579 397" fill="none" xmlns="http://www.w3.org/2000/svg">
<path fill-rule="evenodd" clip-rule="evenodd" d="M1476 261L1467 257H1388L1374 262L1366 269L1334 336L1335 345L1338 348L1345 350H1425L1435 347L1446 337L1477 272L1476 261ZM1388 278H1447L1428 322L1423 329L1364 328L1374 304L1382 290V287L1388 278ZM1242 350L1267 349L1293 291L1301 277H1345L1352 263L1353 257H1240L1231 274V277H1272L1274 279L1243 343L1242 350ZM1073 344L1077 348L1083 350H1164L1174 347L1185 336L1221 258L1197 257L1195 259L1161 329H1104L1103 327L1134 262L1133 257H1110L1073 336V344ZM1047 258H1019L930 347V350H955L970 335L1014 334L1025 335L1027 337L1028 349L1055 350L1047 258ZM1022 282L1025 314L991 315L990 314L1022 282ZM20 289L26 305L52 354L50 363L41 374V376H45L61 369L70 358L68 345L52 306L49 293L51 285L60 278L77 270L104 262L137 258L148 244L162 231L183 215L203 204V202L188 206L146 223L124 234L112 243L76 254L75 253L77 250L90 242L93 238L117 224L153 206L198 188L248 174L310 164L338 162H399L440 165L592 186L694 191L753 190L821 186L890 178L988 161L1039 149V147L960 156L895 161L802 165H723L609 159L491 144L429 138L347 137L303 141L262 148L226 157L179 173L143 189L94 217L60 242L30 271L22 281L20 289ZM574 133V135L592 130L649 109L760 73L805 61L853 51L923 43L987 44L1041 51L1083 60L1137 75L1210 100L1291 134L1289 136L1237 140L1191 147L1131 161L1106 169V171L1153 164L1201 160H1306L1364 165L1413 173L1452 182L1487 193L1500 205L1510 225L1515 254V278L1512 296H1514L1521 280L1528 256L1531 227L1530 214L1525 193L1516 177L1510 171L1463 162L1412 156L1354 152L1280 150L1284 148L1325 146H1400L1510 155L1533 141L1548 126L1558 109V105L1494 120L1434 128L1409 129L1222 70L1121 42L1069 31L1022 24L967 20H935L895 23L848 30L767 51L681 83L574 133Z" fill="#27B891"/>
<path fill-rule="evenodd" clip-rule="evenodd" d="M447 348V350H561L570 329H486L485 326L493 311H556L564 291H475L447 348ZM180 350H206L223 314L226 311H305L314 291H207L181 344L180 350ZM887 254H860L844 288L841 291L791 292L783 311L832 312L815 350L843 349L887 254ZM791 254L764 255L720 350L748 349L788 264L791 254ZM743 254H636L627 258L620 265L604 298V307L610 311H688V317L680 329H590L581 350H685L695 347L706 336L722 301L721 295L715 291H638L636 288L642 276L645 274H734L743 254ZM484 274H596L604 258V254H492L485 268L484 274ZM353 254L344 274H432L434 277L428 290L421 294H334L310 342L308 350H334L352 315H379L396 350H428V347L413 316L435 313L443 309L448 304L467 266L466 258L460 254H353ZM216 274H324L333 254H225L216 271V274Z" fill="white"/>
</svg>
