<svg width="57" height="55" viewBox="0 0 57 55" fill="none" xmlns="http://www.w3.org/2000/svg">
<path d="M22.4378 1.35656C13.5315 5.95031 14.2815 19.4503 23.6565 23.1066C33.5003 26.8566 42.969 17.3878 39.219 7.54406C36.6878 0.981557 28.8128 -1.92469 22.4378 1.35656ZM29.5628 4.82531C31.4378 6.79406 31.2503 8.38781 29.094 7.73156C26.094 6.79406 26.094 8.66906 29.0003 10.9191C32.2815 13.2628 32.5628 15.6066 29.9378 17.8566C28.344 19.1691 27.6878 19.2628 26.1878 18.3253C23.5628 16.6378 23.844 14.9503 26.6565 15.5128C28.1565 15.7941 29.0003 15.5128 29.0003 14.7628C29.0003 14.1066 27.969 12.7941 26.6565 11.7628C23.9378 9.60656 23.6565 7.54406 26.0003 5.29406C27.969 3.23156 27.8753 3.23156 29.5628 4.82531Z" fill="white"/>
<path d="M9.87529 15.9815C9.21904 17.7628 8.28154 20.0128 8.00029 21.044C7.43779 22.7315 6.78154 22.919 3.59404 22.544C0.0315356 21.9815 -0.249714 22.169 0.125286 24.2315C0.219036 25.4503 1.34404 26.8565 2.46904 27.419C3.96904 28.169 4.25029 28.8253 3.59404 30.044C3.12529 30.8878 2.84404 36.5128 2.93779 42.6065L3.21904 53.669L6.68779 53.9503C9.78154 54.2315 10.1565 54.044 10.719 51.419L11.3753 48.5128H28.0628H44.7503L45.4065 51.419C45.969 54.044 46.344 54.2315 49.4378 53.9503L52.9065 53.669L53.1878 42.6065C53.2815 36.5128 53.0003 30.8878 52.5315 30.044C51.8753 28.8253 52.1565 28.169 53.6565 27.419C54.7815 26.8565 55.9065 25.4503 56.0003 24.2315C56.3753 22.169 56.094 21.9815 52.6253 22.4503L48.8753 23.0128L47.094 18.2315C46.0628 15.6065 44.844 13.3565 44.2815 13.169C42.4065 12.5128 42.3128 16.8253 44.094 21.044C45.0315 23.294 45.8753 25.7315 45.8753 26.3878C45.8753 28.544 27.0315 29.669 15.219 28.2628C9.59404 27.5128 9.40654 27.1378 12.0315 21.044C13.8128 17.0128 13.8128 12.8878 12.0315 12.8878C11.5628 12.8878 10.6253 14.294 9.87529 15.9815ZM13.2503 33.1378C16.344 33.7003 16.6253 33.9815 15.7815 35.5753C14.3753 38.2003 8.37529 37.6378 7.34404 34.6378C6.50029 32.294 7.15654 32.2003 13.2503 33.1378ZM48.7815 34.6378C47.7503 37.6378 41.7503 38.2003 40.344 35.4815C39.4065 33.794 39.6878 33.6065 42.3128 33.2315C49.4378 32.3878 49.6253 32.3878 48.7815 34.6378ZM37.4378 40.6378C37.4378 40.919 36.969 41.9503 36.5003 42.9815C35.6565 44.4815 34.4378 44.7628 28.0628 44.7628C21.6878 44.7628 20.469 44.4815 19.6253 42.9815C19.1565 41.9503 18.6878 40.919 18.6878 40.6378C18.6878 40.3565 22.9065 40.0753 28.0628 40.0753C33.219 40.0753 37.4378 40.3565 37.4378 40.6378Z" fill="white"/>
</svg>
