<svg width="57" height="60" viewBox="0 0 57 60" fill="none" xmlns="http://www.w3.org/2000/svg">
<path d="M0 30V60H22.5C37.625 60 45.4375 59.75 46.4375 59.3125C47.3125 58.9375 48.375 57.875 48.8125 56.9375C49.3125 56.0625 50.1875 54.9375 50.8125 54.5C51.75 53.8125 51.875 53.125 51.5 50.75C50.9375 46.5625 50.3125 45.8125 47.5 45.3125L45 44.875V40.875V36.875H47.0625C55.125 36.8125 59.0625 28.4375 53.4375 23.25C51.375 21.375 50.8125 21.1875 48.0625 21.375L45 21.5625V10.75V0H22.5H0V30ZM43.75 11.5625C43.75 21.5625 43.6875 22 42.1875 24.3125C40.75 26.4375 40.5625 27.25 40.75 31.625C40.9375 36.1875 41.0625 36.5625 42.375 36.75C43.625 36.9375 43.75 37.3125 43.75 41.0625C43.75 46.1875 42.875 45.75 40.3125 39.375C39.3125 36.9375 38.1875 34.6875 37.8125 34.375C37.3125 33.9375 32.9375 33.8125 26.5 33.9375C19.9375 34 16.5 34.3125 17.375 34.625C19.0625 35.25 19.0625 35.1875 17.5 39.6875C16 44.0625 15.1875 45.125 13.5625 44.875C11.8125 44.625 11.5625 43.375 13.125 42.9375C14.1875 42.6875 14.4375 42.1875 14.25 40.8125C14.0625 39.3125 13.75 39.0625 11.9375 38.875C8.25 38.5 6.75 39.1875 7 41.125C7.125 42.4375 7.5625 42.875 8.9375 43C10.9375 43.25 11.0625 43.9375 9.375 46.0625C7.875 48 7.6875 52.5625 9 53.75C9.5 54.125 10.5 55.4375 11.1875 56.625L12.4375 58.75H6.875H1.25V30V1.25H22.5H43.75V11.5625ZM52.25 23.625C55.1875 26 55.75 29.125 53.75 32.3125C52.375 34.5625 49.5625 35.625 44.875 35.625H41.875V31.5625C41.875 27.25 42.9375 24.3125 44.8125 23.1875C46.5625 22.1875 50.8125 22.4375 52.25 23.625ZM39.375 40.3125C41.9375 45.875 41.75 45.6875 47 46.5625C48.9375 46.875 49.4375 47.25 49.75 48.625C49.9375 49.5625 50.25 50.8125 50.4375 51.375C51 53.5625 49.875 53.75 48.5 51.75C46.625 48.9375 44.375 48.25 41.5625 49.5625C40.25 50.1875 39.25 51.1875 39 52.1875C38.5 54.25 36.6875 54.25 35.75 52.1875C35 50.625 34.8125 50.5625 29.875 50.75C25.1875 50.9375 24.625 51.0625 24.0625 52.375C23.25 54.25 22.125 54.125 21.125 52.0625C19.375 48.3125 14.25 47.9375 11.75 51.25C10.125 53.5 9.375 53.125 9.375 50.0625C9.375 47.25 10.25 46.25 12.875 46.25C15.625 46.25 17.1875 44.6875 18.4375 40.625C20.375 34.625 19.625 35 28.8125 35H36.9375L39.375 40.3125ZM13.125 40.9375C13.125 41.625 12.4375 41.875 10.625 41.875C8.8125 41.875 8.125 41.625 8.125 40.9375C8.125 40.25 8.8125 40 10.625 40C12.4375 40 13.125 40.25 13.125 40.9375ZM19.0625 51.5625C21.0625 53.5 21.0625 55.25 19.0625 57.1875C17.0625 59.25 14.8125 59.1875 13.1875 57.125C11.5 54.9375 11.5625 53.4375 13.4375 51.5625C15.375 49.5625 17.125 49.5625 19.0625 51.5625ZM46.5 51.3125C49.5 53.6875 47.875 58.75 44.125 58.75C40.25 58.75 38.3125 53.5 41.3125 51.125C43.0625 49.6875 44.4375 49.6875 46.5 51.3125ZM34.875 52.9375C35.0625 53.5625 33.8125 53.75 30.0625 53.75C25.375 53.75 24.3125 53.375 25.4375 52.25C26.1875 51.5 34.5625 52.125 34.875 52.9375ZM39.1875 56.875L39.875 58.75H30H20.0625L21.125 56.875L22.1875 55H30.3125H38.5L39.1875 56.875Z" fill="white"/>
<path d="M16.875 6.25C16.875 6.625 19.0625 6.875 22.25 6.875C25.625 6.875 27.4375 6.625 27.1875 6.25C27 5.875 24.5625 5.625 21.8125 5.625C18.9375 5.625 16.875 5.875 16.875 6.25Z" fill="white"/>
<path d="M19.375 9.375C19.375 9.6875 20.625 10 22.1875 10C23.75 10 25 9.6875 25 9.375C25 9 23.75 8.75 22.1875 8.75C20.625 8.75 19.375 9 19.375 9.375Z" fill="white"/>
<path d="M5.625 15.625C5.625 15.9375 6.625 16.25 7.8125 16.25C9 16.25 10 15.9375 10 15.625C10 15.25 9 15 7.8125 15C6.625 15 5.625 15.25 5.625 15.625Z" fill="white"/>
<path d="M12.1875 15.625C11.9375 16 14.6875 16.25 19.9375 16.25C25 16.25 28.125 16 28.125 15.625C28.125 15.25 25.125 15 20.375 15C15.8125 15 12.4375 15.25 12.1875 15.625Z" fill="white"/>
<path d="M30.625 15.625C30.625 16 32.375 16.25 34.6875 16.25C37 16.25 38.75 16 38.75 15.625C38.75 15.25 37 15 34.6875 15C32.375 15 30.625 15.25 30.625 15.625Z" fill="white"/>
<path d="M5.625 19.375C5.625 19.75 8.625 20 13.4375 20C18.25 20 21.25 19.75 21.25 19.375C21.25 19 18.25 18.75 13.4375 18.75C8.625 18.75 5.625 19 5.625 19.375Z" fill="white"/>
<path d="M24.375 19.375C24.375 19.75 27.1875 20 31.5625 20C35.9375 20 38.75 19.75 38.75 19.375C38.75 19 35.9375 18.75 31.5625 18.75C27.1875 18.75 24.375 19 24.375 19.375Z" fill="white"/>
<path d="M5.625 23.125C5.625 23.4375 6.5625 23.75 7.75 23.75C8.9375 23.75 10.125 23.4375 10.3125 23.125C10.5625 22.75 9.6875 22.5 8.1875 22.5C6.75 22.5 5.625 22.75 5.625 23.125Z" fill="white"/>
<path d="M13.4375 23.125C13.625 23.5 16.5625 23.75 20 23.75C23.4375 23.75 26.375 23.5 26.5625 23.125C26.8125 22.75 24.5 22.5 20 22.5C15.5 22.5 13.1875 22.75 13.4375 23.125Z" fill="white"/>
<path d="M30.3125 23.125C30.5 23.4375 32.375 23.75 34.375 23.75C36.375 23.75 38.25 23.4375 38.4375 23.125C38.6875 22.75 37.1875 22.5 34.375 22.5C31.5625 22.5 30.0625 22.75 30.3125 23.125Z" fill="white"/>
<path d="M5.625 26.25C5.625 26.625 8.875 26.875 14.125 26.875C19.5625 26.875 22.4375 26.625 22.1875 26.25C21.9375 25.875 18.4375 25.625 13.6875 25.625C8.75 25.625 5.625 25.875 5.625 26.25Z" fill="white"/>
<path d="M25 26.25C25 26.625 26.6875 26.875 28.75 26.875C30.8125 26.875 32.5 26.625 32.5 26.25C32.5 25.875 30.8125 25.625 28.75 25.625C26.6875 25.625 25 25.875 25 26.25Z" fill="white"/>
<path d="M34.6875 26.25C34.4375 26.625 35.1875 26.875 36.5625 26.875C37.9375 26.875 38.6875 26.625 38.4375 26.25C38.25 25.875 37.375 25.625 36.5625 25.625C35.75 25.625 34.875 25.875 34.6875 26.25Z" fill="white"/>
<path d="M5.625 30C5.625 30.3125 6.875 30.625 8.4375 30.625C10 30.625 11.25 30.3125 11.25 30C11.25 29.625 10 29.375 8.4375 29.375C6.875 29.375 5.625 29.625 5.625 30Z" fill="white"/>
<path d="M14.375 30C14.375 30.375 17.3125 30.625 21.875 30.625C26.4375 30.625 29.375 30.375 29.375 30C29.375 29.625 26.4375 29.375 21.875 29.375C17.3125 29.375 14.375 29.625 14.375 30Z" fill="white"/>
<path d="M32.5 30C32.5 30.3125 33.0625 30.625 33.75 30.625C34.4375 30.625 35 30.3125 35 30C35 29.625 34.4375 29.375 33.75 29.375C33.0625 29.375 32.5 29.625 32.5 30Z" fill="white"/>
<path d="M44.5625 26C44.375 26.5 44.625 27.375 45.125 27.875C45.875 28.625 46.1875 28.625 47.1875 27.9375C48.625 26.875 48.0625 25 46.25 25C45.5625 25 44.8125 25.4375 44.5625 26Z" fill="white"/>
<path d="M47.8125 28.75C46.125 30.4375 45 31.875 45.375 31.875C45.6875 31.875 47.375 30.4375 49.0625 28.75C50.75 27 51.875 25.625 51.5 25.625C51.1875 25.625 49.5 27 47.8125 28.75Z" fill="white"/>
<path d="M49 30.3125C48.75 30.875 48.875 31.625 49.25 32C50.25 33 52.1875 32.3125 52.1875 30.9375C52.1875 29.3125 49.5625 28.8125 49 30.3125Z" fill="white"/>
<path d="M21.9375 37.0625C21.125 38.0625 19.375 42.875 19.375 44.125C19.375 44.8125 20.4375 45 23.75 45H28.125V46.875C28.125 47.875 28.4375 48.75 28.75 48.75C29.125 48.75 29.375 47.875 29.375 46.875V45H34.0625C37.625 45 38.75 44.8125 38.75 44.125C38.75 42.875 36.1875 37.25 35.375 36.75C34.0625 35.875 22.6875 36.1875 21.9375 37.0625ZM28.125 40.625V43.75H24.3125C21.5 43.75 20.625 43.5625 20.875 42.9375C21 42.5625 21.5 41.125 21.9375 39.8125C22.6875 37.625 22.8125 37.5 25.4375 37.5H28.125V40.625ZM35.1875 38.25C35.375 38.6875 35.9375 40.125 36.5 41.375L37.5 43.75H33.4375H29.375V40.625V37.5H32.125C33.75 37.5 35 37.8125 35.1875 38.25Z" fill="white"/>
<path d="M30.625 46.875C30.625 47.1875 31.0625 47.5 31.5625 47.5C32.0625 47.5 32.5 47.1875 32.5 46.875C32.5 46.5 32.0625 46.25 31.5625 46.25C31.0625 46.25 30.625 46.5 30.625 46.875Z" fill="white"/>
<path d="M14.375 52.8125C12.75 54.8125 15.1875 57.875 17.375 56.5C18.75 55.625 19.0625 53.9375 18.125 52.8125C17.125 51.625 15.375 51.625 14.375 52.8125ZM17.25 53.8125C17.875 54.875 16.4375 56.0625 15.5625 55.1875C14.8125 54.4375 15.3125 53.125 16.25 53.125C16.5625 53.125 17 53.4375 17.25 53.8125Z" fill="white"/>
<path d="M42.25 52.875C41.0625 54.0625 41 54.4375 42.0625 55.9375C43.3125 57.5625 46.25 56.75 46.25 54.8125C46.25 52.125 44.0625 51.0625 42.25 52.875ZM44.8125 54.0625C45.25 55.3125 44.6875 55.875 43.5 55.4375C42.9375 55.1875 42.6875 54.625 42.875 54.0625C43.375 52.875 44.3125 52.875 44.8125 54.0625Z" fill="white"/>
</svg>
