<svg width="64" height="64" viewBox="0 0 64 64" fill="none" xmlns="http://www.w3.org/2000/svg">
<path d="M39.9974 24.0006C39.9974 23.7354 39.8921 23.4811 39.7045 23.2935C39.517 23.106 39.2627 23.0007 38.9975 23.0006H8.99963C8.73443 23.0006 8.48009 23.106 8.29257 23.2935C8.10504 23.481 7.99969 23.7354 7.99969 24.0006C7.99969 24.2658 8.10504 24.5201 8.29257 24.7076C8.48009 24.8951 8.73443 25.0005 8.99963 25.0005H38.9975C39.2627 25.0005 39.517 24.8951 39.7045 24.7076C39.8921 24.5201 39.9974 24.2658 39.9974 24.0006Z" fill="white"/>
<path d="M8.99963 17.0011H23.9986C24.2638 17.0011 24.5181 16.8957 24.7056 16.7082C24.8931 16.5207 24.9985 16.2663 24.9985 16.0011C24.9985 15.7359 24.8931 15.4816 24.7056 15.2941C24.5181 15.1066 24.2638 15.0012 23.9986 15.0012H8.99963C8.73443 15.0012 8.48009 15.1066 8.29257 15.2941C8.10504 15.4816 7.99969 15.7359 7.99969 16.0011C7.99969 16.2663 8.10504 16.5207 8.29257 16.7082C8.48009 16.8957 8.73443 17.0011 8.99963 17.0011Z" fill="white"/>
<path d="M8.99963 31.0001C8.73443 31.0001 8.48009 31.1054 8.29257 31.2929C8.10504 31.4805 7.99969 31.7348 7.99969 32C7.99969 32.2652 8.10504 32.5195 8.29257 32.7071C8.48009 32.8946 8.73443 32.9999 8.99963 32.9999H19.5687C19.8339 32.9999 20.0882 32.8946 20.2758 32.7071C20.4633 32.5195 20.5686 32.2652 20.5686 32C20.5686 31.7348 20.4633 31.4805 20.2758 31.2929C20.0882 31.1054 19.8339 31.0001 19.5687 31.0001H8.99963Z" fill="white"/>
<path d="M16.629 38.9995H8.99963C8.73443 38.9995 8.48009 39.1048 8.29257 39.2924C8.10504 39.4799 7.99969 39.7342 7.99969 39.9994C7.99969 40.2646 8.10504 40.519 8.29257 40.7065C8.48009 40.894 8.73443 40.9994 8.99963 40.9994H16.629C16.8942 40.9994 17.1485 40.894 17.336 40.7065C17.5236 40.519 17.6289 40.2646 17.6289 39.9994C17.6289 39.7342 17.5236 39.4799 17.336 39.2924C17.1485 39.1048 16.8942 38.9995 16.629 38.9995Z" fill="white"/>
<path d="M14.9992 48.9988C15.2644 48.9988 15.5187 48.8934 15.7063 48.7059C15.8938 48.5184 15.9991 48.2641 15.9991 47.9989C15.9991 47.7337 15.8938 47.4793 15.7063 47.2918C15.5187 47.1043 15.2644 46.9989 14.9992 46.9989H8.99963C8.73443 46.9989 8.48009 47.1043 8.29257 47.2918C8.10504 47.4793 7.99969 47.7337 7.99969 47.9989C7.99969 48.2641 8.10504 48.5184 8.29257 48.7059C8.48009 48.8934 8.73443 48.9988 8.99963 48.9988H14.9992Z" fill="white"/>
<path d="M15.9493 57.9981H8.99964C8.20431 57.9973 7.44181 57.6809 6.87943 57.1186C6.31705 56.5562 6.00073 55.7937 5.99986 54.9984V9.00163C6.00073 8.20631 6.31705 7.44381 6.87943 6.88142C7.44181 6.31904 8.20431 6.00271 8.99964 6.00184H27.9983C28.5276 6.0054 29.0342 6.21724 29.4085 6.59152C29.7827 6.9658 29.9946 7.47241 29.9981 8.0017V13.0013C29.9997 14.3269 30.527 15.5976 31.4642 16.5349C32.4015 17.4722 33.6723 17.9994 34.9978 18.001H39.9974C40.5267 18.0046 41.0333 18.2164 41.4076 18.5907C41.7819 18.965 41.9937 19.4716 41.9973 20.0008V24.7105C41.9969 24.8421 42.0224 24.9724 42.0725 25.0941C42.1226 25.2158 42.1962 25.3264 42.2891 25.4196C42.3819 25.5128 42.4923 25.5867 42.6138 25.6371C42.7354 25.6876 42.8656 25.7136 42.9972 25.7136C43.1288 25.7136 43.2591 25.6876 43.3806 25.6371C43.5021 25.5867 43.6125 25.5128 43.7054 25.4196C43.7983 25.3264 43.8719 25.2158 43.9219 25.0941C43.972 24.9724 43.9976 24.8421 43.9972 24.7105V20.0008C43.9983 19.4755 43.8953 18.9551 43.694 18.4699C43.4926 17.9846 43.1971 17.5442 42.8244 17.1739L30.8252 5.17475C30.455 4.80205 30.0145 4.5065 29.5292 4.30519C29.044 4.10389 28.5236 4.00083 27.9983 4.00199H8.99964C7.67413 4.00355 6.40336 4.5308 5.46608 5.46808C4.52881 6.40535 4.00156 7.67613 4 9.00163V54.9984C4.00156 56.3239 4.52881 57.5946 5.46608 58.5319C6.40336 59.4692 7.67413 59.9964 8.99964 59.998H15.9493C16.2115 59.9934 16.4613 59.886 16.6451 59.699C16.8288 59.5119 16.9318 59.2602 16.9318 58.998C16.9318 58.7359 16.8288 58.4841 16.645 58.2971C16.4613 58.1101 16.2114 58.0028 15.9493 57.9981ZM31.998 9.17544L38.8237 16.0011H34.9978C34.2025 16.0003 33.44 15.6839 32.8776 15.1216C32.3152 14.5592 31.9989 13.7967 31.998 13.0013V9.17544Z" fill="white"/>
<path d="M55.2792 39.3343L56.9816 39.3344C57.58 39.3274 58.1516 39.0848 58.5723 38.6591C58.993 38.2335 59.2289 37.6591 59.2289 37.0606C59.2289 36.4622 58.993 35.8878 58.5723 35.4622C58.1515 35.0365 57.58 34.7939 56.9815 34.7869H54.4408C53.9414 34.7897 53.4498 34.9099 53.0056 35.138C52.355 33.5097 51.6072 31.593 51.0499 30.1447C50.7502 29.4215 50.2426 28.8037 49.5914 28.3694C48.9402 27.9351 48.1747 27.704 47.3919 27.7054H30.6031C29.816 27.7052 29.0468 27.9396 28.3935 28.3786C27.7402 28.8175 27.2326 29.4412 26.9354 30.17C26.3832 31.605 25.6382 33.5143 24.9897 35.138C24.5454 34.9099 24.0537 34.7896 23.5543 34.7869H21.0134C20.4149 34.7936 19.8431 35.0362 19.4222 35.4619C19.0013 35.8876 18.7652 36.462 18.7652 37.0607C18.7653 37.6593 19.0013 38.2338 19.4222 38.6595C19.8431 39.0851 20.4149 39.3277 21.0135 39.3344H22.7149C21.3967 40.8754 17.8708 42.5254 17.9989 45.1571L17.999 51.5913C18.0002 52.4135 18.2593 53.2146 18.7397 53.8818V57.5167C18.7405 58.1745 19.0021 58.8052 19.4673 59.2704C19.9324 59.7355 20.5631 59.9972 21.2209 59.998H25.6649C26.3228 59.9972 26.9534 59.7355 27.4186 59.2704C27.8838 58.8052 28.1454 58.1746 28.1462 57.5167V55.554H49.8488V57.5167C49.8496 58.1746 50.1113 58.8052 50.5764 59.2704C51.0416 59.7355 51.6722 59.9972 52.3301 59.998H56.7741C57.4319 59.9972 58.0626 59.7355 58.5277 59.2704C58.9929 58.8052 59.2546 58.1746 59.2553 57.5167V53.8819C59.7357 53.2146 59.9948 52.4135 59.996 51.5914V45.1573C60.1346 42.5523 56.6204 40.8843 55.2792 39.3343ZM54.4408 36.7868H56.9816C57.0177 36.7865 57.0535 36.7935 57.0869 36.8071C57.1203 36.8208 57.1507 36.8409 57.1763 36.8664C57.202 36.8919 57.2223 36.9221 57.2361 36.9555C57.25 36.9888 57.2572 37.0246 57.2572 37.0607C57.2572 37.0968 57.25 37.1325 57.2361 37.1659C57.2223 37.1992 57.202 37.2295 57.1763 37.2549C57.1507 37.2804 57.1203 37.3005 57.0869 37.3142C57.0535 37.3279 57.0177 37.3348 56.9816 37.3346H53.8999C53.5932 36.9276 54.0786 36.8015 54.4408 36.7868ZM28.7917 30.9132C28.9401 30.5551 29.1914 30.2491 29.5139 30.034C29.8364 29.819 30.2155 29.7045 30.6031 29.7052H47.3919C47.7752 29.7034 48.1505 29.8146 48.471 30.025C48.7914 30.2353 49.0428 30.5354 49.1936 30.8878C49.5558 31.8295 51.0062 35.5871 51.9354 37.816H26.0596C26.9882 35.5882 28.4367 31.8359 28.7917 30.9132ZM21.0134 37.3346C20.9773 37.3348 20.9415 37.3279 20.9081 37.3142C20.8747 37.3005 20.8443 37.2804 20.8187 37.2549C20.7931 37.2295 20.7728 37.1992 20.7589 37.1659C20.745 37.1325 20.7379 37.0968 20.7379 37.0607C20.7379 37.0246 20.745 36.9888 20.7589 36.9555C20.7728 36.9221 20.7931 36.8919 20.8187 36.8664C20.8443 36.8409 20.8747 36.8208 20.9081 36.8071C20.9415 36.7935 20.9773 36.7865 21.0134 36.7868H23.5543C23.9145 36.8016 24.4038 36.9276 24.0956 37.3346H21.0134ZM26.1464 57.5167C26.1446 57.6439 26.0934 57.7653 26.0034 57.8552C25.9135 57.9451 25.7921 57.9964 25.665 57.9981H21.221C21.0938 57.9964 20.9724 57.9451 20.8825 57.8552C20.7926 57.7653 20.7413 57.6439 20.7396 57.5167V55.3413C21.5424 55.7223 25.2372 55.4983 26.1464 55.554V57.5167ZM30.6314 53.5541L30.9966 52.5581H47.0931L47.435 53.5541H30.6314ZM57.2555 57.5167C57.2537 57.6439 57.2024 57.7653 57.1125 57.8552C57.0226 57.9451 56.9012 57.9964 56.774 57.9981H52.33C52.2029 57.9964 52.0815 57.9451 51.9916 57.8552C51.9017 57.7653 51.8504 57.6439 51.8486 57.5167V55.554C52.7796 55.4972 56.4318 55.7241 57.2555 55.3413V57.5167ZM56.0334 53.5541H49.5491L48.7527 51.234C48.6851 51.0368 48.5577 50.8657 48.3881 50.7446C48.2185 50.6234 48.0153 50.5583 47.8069 50.5582H30.2979C30.0931 50.5582 29.8931 50.6212 29.7252 50.7386C29.5573 50.8559 29.4295 51.022 29.3591 51.2144L28.5014 53.5541H21.9616C21.4413 53.5535 20.9424 53.3465 20.5744 52.9786C20.2065 52.6106 19.9995 52.1117 19.9989 51.5914V45.1573C20.0003 44.9213 20.0488 44.688 20.1415 44.471C20.2343 44.254 20.3694 44.0578 20.5389 43.8937C22.1167 42.6238 23.6184 41.2621 25.0363 39.8158H52.9587C54.3581 41.2454 55.8414 42.5904 57.4005 43.8438C57.5868 44.0084 57.7361 44.2105 57.8388 44.4368C57.9414 44.6632 57.995 44.9087 57.9961 45.1572L57.9962 51.5913C57.9956 52.1117 57.7886 52.6106 57.4206 52.9786C57.0527 53.3465 56.5537 53.5535 56.0334 53.5541Z" fill="white"/>
<path d="M26.3851 44.3087H23.5152C23.2534 44.3138 23.004 44.4214 22.8207 44.6083C22.6373 44.7953 22.5346 45.0467 22.5346 45.3086C22.5346 45.5705 22.6373 45.8219 22.8207 46.0089C23.004 46.1958 23.2534 46.3034 23.5152 46.3085H26.3852C26.647 46.3034 26.8963 46.1958 27.0797 46.0089C27.2631 45.8219 27.3658 45.5705 27.3657 45.3086C27.3657 45.0467 27.263 44.7953 27.0797 44.6083C26.8963 44.4214 26.6469 44.3138 26.3851 44.3087Z" fill="white"/>
<path d="M54.4729 44.3087H51.6133C51.3515 44.3138 51.1021 44.4214 50.9188 44.6083C50.7354 44.7953 50.6327 45.0467 50.6327 45.3086C50.6327 45.5705 50.7354 45.8219 50.9188 46.0089C51.1021 46.1958 51.3515 46.3034 51.6133 46.3085H54.473C54.7348 46.3034 54.9842 46.1958 55.1675 46.0089C55.3509 45.8219 55.4536 45.5704 55.4536 45.3086C55.4536 45.0467 55.3509 44.7953 55.1675 44.6083C54.9841 44.4214 54.7347 44.3138 54.4729 44.3087Z" fill="white"/>
<path d="M47.6135 44.3087H30.3849C30.1231 44.3139 29.8739 44.4216 29.6906 44.6085C29.5074 44.7955 29.4047 45.0468 29.4047 45.3086C29.4047 45.5704 29.5074 45.8218 29.6906 46.0087C29.8739 46.1957 30.1231 46.3033 30.3849 46.3085H47.6136C47.8753 46.3033 48.1246 46.1956 48.3078 46.0087C48.4911 45.8217 48.5937 45.5704 48.5937 45.3086C48.5937 45.0468 48.491 44.7954 48.3078 44.6085C48.1245 44.4216 47.8753 44.3139 47.6135 44.3087Z" fill="white"/>
</svg>
