<svg width="60" height="60" viewBox="0 0 60 60" fill="none" xmlns="http://www.w3.org/2000/svg">
<path d="M44.5283 43H40.058C39.4401 43 38.9407 42.5009 38.9407 41.8849V38.5385H32.2119C32.2013 38.5385 32.2013 38.5385 32.19 38.5385C31.5755 38.5385 31.072 38.036 31.072 37.4234C31.072 36.8095 31.5755 36.3077 32.19 36.3077H40.058H46.7635V32.9612H41.1759C40.5581 32.9612 40.058 32.4621 40.058 31.8462V30.7304C40.058 28.2707 42.063 26.2689 44.5283 26.2689H45.6482L43.9704 24.0381H16.0183L14.268 26.2689H15.4704C17.9363 26.2689 19.9407 28.2707 19.9407 30.7304V31.8462C19.9407 32.4621 19.4413 32.9612 18.8235 32.9612H13.2352V36.3077H19.9407H23.2492C23.8744 36.3077 24.3665 36.8095 24.3665 37.4234C24.3665 38.036 23.8744 38.5385 23.2492 38.5385H21.0586V41.8849C21.0586 42.5009 20.5585 43 19.9407 43H15.4704C13.6216 43 12.1179 41.4993 12.1179 39.6535V38.5385C11.8273 38.5385 11.536 38.4157 11.3239 38.2152C11.1217 38.0028 11 37.7128 11 37.4234V31.8462V27.3846V27.1941C11 26.9492 11.0778 26.7036 11.2348 26.5138L13.7439 23.308L12.7357 22.8049C12.1838 22.5295 11.9596 21.8598 12.2356 21.3082C12.513 20.7574 13.1826 20.5343 13.7353 20.8098L14.9503 21.4164L16.4539 18.2558C17.3936 15.7449 19.9168 14 22.6959 14H37.3034C40.0819 14 42.6057 15.7449 43.582 18.3421L45.0477 21.4171L46.2634 20.8105C46.8147 20.535 47.4857 20.758 47.763 21.3089C48.039 21.8605 47.8156 22.5302 47.2629 22.8056L46.2255 23.3233L48.7752 26.7156C48.7812 26.7242 48.7859 26.7328 48.7918 26.7415C48.8051 26.7601 48.8165 26.7793 48.8291 26.7985C48.8537 26.8384 48.8763 26.8795 48.8963 26.922C48.9049 26.9406 48.9129 26.9598 48.9202 26.9784C48.9382 27.0242 48.9528 27.072 48.9648 27.1211C48.9694 27.1404 48.9747 27.1583 48.9787 27.1775C48.9914 27.2452 49 27.3143 49 27.3853V31.8468V37.4241C49 37.7254 48.8876 38.0035 48.6755 38.2159C48.4627 38.4276 48.1833 38.5391 47.8821 38.5391V39.6542C47.8814 41.4993 46.3771 43 44.5283 43ZM41.1759 40.7692H44.5283C45.1448 40.7692 45.6462 40.2688 45.6462 39.6535V38.5385H41.1759V40.7692ZM42.2931 30.7304H46.7635V28.4997H44.5283C43.296 28.4997 42.2931 29.5006 42.2931 30.7304ZM42.76 21.8074L41.5257 19.2115C40.838 17.3936 39.1548 16.2301 37.3027 16.2301H22.6959C20.8438 16.2301 19.1606 17.3936 18.5102 19.1259L17.2367 21.8074H42.76ZM15.4704 28.4997H13.2352V30.7304H17.7055C17.7055 29.5006 16.7027 28.4997 15.4704 28.4997ZM18.8235 38.5385H14.3531V39.6535C14.3531 40.2688 14.8539 40.7692 15.4704 40.7692H18.8235V38.5385ZM26.613 37.4234C26.613 38.036 27.1051 38.5385 27.7309 38.5385C28.3454 38.5385 28.8375 38.036 28.8375 37.4234C28.8375 36.8095 28.3454 36.3077 27.7309 36.3077C27.1051 36.3077 26.613 36.8095 26.613 37.4234ZM35.5876 32.9612H24.4117C23.9881 32.9612 23.6017 32.7229 23.4115 32.3446L21.985 29.4979C21.6359 28.7997 21.6731 27.9893 22.0834 27.3269C22.4938 26.6645 23.204 26.2696 23.9848 26.2696H36.0146C36.7946 26.2696 37.5056 26.6651 37.9159 27.3269C38.3262 27.9893 38.3635 28.8003 38.0137 29.4972L36.5872 32.3453C36.3976 32.7229 36.0112 32.9612 35.5876 32.9612ZM23.9848 28.4997L25.102 30.7304H34.8966L36.0146 28.4997H23.9848Z" fill="white"/>
<path d="M39.0004 57C39.6223 57 40.1251 56.4966 40.1251 55.8747C40.1251 55.2541 39.6223 54.7501 39.0004 54.7501H30C16.3531 54.7501 5.24994 43.6469 5.24994 30C5.24994 22.8318 8.35341 16.0726 13.6713 11.398L13.1458 14.0281C13.024 14.6373 13.4196 15.2304 14.0281 15.3523C14.1031 15.367 14.1768 15.3744 14.2504 15.3744C14.7752 15.3744 15.2458 15.0042 15.3523 14.47L16.4414 9.02483C16.5238 8.79723 16.5264 8.54686 16.4521 8.31055C16.4354 8.25165 16.4133 8.19407 16.3865 8.13784C16.3785 8.12245 16.3705 8.10772 16.3618 8.09232C16.3464 8.06354 16.3343 8.03408 16.3156 8.00663C16.3042 7.99057 16.2901 7.97785 16.2781 7.96245C16.266 7.94639 16.258 7.92831 16.2453 7.91225C16.2279 7.89149 16.2071 7.8761 16.1884 7.85668C16.1743 7.84196 16.1596 7.82857 16.1449 7.81451C15.9367 7.61703 15.6642 7.49988 15.3744 7.49988H9.74983C9.12794 7.49988 8.62453 8.00329 8.62453 8.62452C8.62453 9.24641 9.12794 9.74982 9.74983 9.74982H12.1404C6.36655 14.8455 3 22.2005 3 30C3 44.8874 15.1126 57 30 57H39.0004Z" fill="white"/>
<path d="M47.8596 50.2495H50.2502C50.8721 50.2495 51.3755 50.7536 51.3748 51.3748C51.3748 51.9967 50.8714 52.5001 50.2495 52.5001H44.6243C44.3438 52.5001 44.0787 52.391 43.8739 52.2056C43.8699 52.2015 43.8665 52.1975 43.8625 52.1942C43.8197 52.1534 43.7755 52.1138 43.738 52.067C43.7273 52.0536 43.7212 52.0369 43.7112 52.0235C43.7025 52.0121 43.6918 52.0047 43.6838 51.9927C43.6563 51.9519 43.6362 51.9077 43.6141 51.8648C43.6101 51.8575 43.6061 51.8508 43.6021 51.8434C43.5753 51.7838 43.5539 51.7222 43.5372 51.66C43.4675 51.4116 43.4809 51.1499 43.58 50.9163L44.6591 46.6018C44.8097 45.9993 45.4196 45.6298 46.0227 45.7831C46.6259 45.9337 46.9934 46.5442 46.8414 47.1474L46.5221 48.426C51.7222 43.7601 54.7501 37.0799 54.7501 30C54.7501 16.3531 43.6476 5.24994 30 5.24994H21.0002C20.3783 5.24994 19.8749 4.74587 19.8749 4.12464C19.8749 3.50341 20.3783 3 21.0002 3H30C44.8874 3 57 15.1119 57 30C57 37.7995 53.6335 45.1538 47.8596 50.2495Z" fill="white"/>
</svg>
