<svg width="172" height="66" viewBox="0 0 172 66" fill="none" xmlns="http://www.w3.org/2000/svg">
<g clip-path="url(#clip0_7_13)">
<path fill-rule="evenodd" clip-rule="evenodd" d="M148.326 32.1157C144.24 32.1157 140.908 34.7416 140.402 38.3591C139.889 42.0356 142.43 44.6026 146.582 44.6026C150.799 44.6026 153.984 42.0936 154.506 38.3591C155.018 34.6836 152.477 32.1157 148.326 32.1157ZM145.672 51.1148C135.352 51.1148 129.14 45.9514 130.213 38.2669C131.253 30.8233 139.264 25.4209 149.262 25.4209C157.849 25.4209 165.959 29.3931 164.719 38.2669C163.629 46.0722 156.153 51.1144 145.672 51.1144M72.3592 32.1154C68.2731 32.1154 64.9409 34.7416 64.4355 38.3591C63.9222 42.0356 66.4631 44.6026 70.6154 44.6026C74.8313 44.6026 78.0153 42.0936 78.5375 38.3591C79.0516 34.6836 76.5115 32.1154 72.3592 32.1154ZM69.7053 51.1148C59.3846 51.1148 53.1734 45.9514 54.2468 38.2669C55.2859 30.8233 63.2972 25.4209 73.2947 25.4209C81.8822 25.4209 89.9924 29.3931 88.7524 38.2669C87.6625 46.0722 80.1868 51.1148 69.7053 51.1148ZM39.9454 50.4166L41.9782 35.1719C42.0642 34.4264 41.7249 33.8526 41.0634 33.2355C40.368 32.5851 39.3442 32.2551 38.0222 32.2551C34.8323 32.2551 33.3801 34.0265 33.085 35.6836L31.0261 50.4166H20.8057L22.8389 35.1719C22.9147 34.4639 22.5856 33.8526 21.9253 33.2355C21.2295 32.5851 20.2061 32.2551 18.884 32.2551C15.6305 32.2551 14.1486 34.1441 13.8687 35.7611L11.8211 50.4166H1.60195L4.23042 31.5948H0L0.777909 26.0264H12.4333L14.4488 29.4299L15.2994 28.4422C15.4049 28.3214 18.0029 25.4209 23.3314 25.4209C29.2271 25.4209 30.4577 28.5008 30.5069 28.6325L30.917 29.7183L31.9193 28.7824C32.0655 28.6466 35.6251 25.4209 42.5352 25.4209C49.1513 25.4209 53.1312 28.9493 52.6988 32.2458L50.1642 50.4166H39.9454ZM107.559 44.6026C103.408 44.6026 100.866 42.0356 101.38 38.3595C101.885 34.742 105.216 32.1157 109.303 32.1157C113.454 32.1157 115.996 34.6833 115.482 38.3595C114.961 42.0933 111.777 44.6026 107.559 44.6026ZM118.922 26.0082L118.606 28.1218C116.625 26.4612 113.849 25.4209 110.238 25.4209C100.241 25.4209 92.2295 30.8236 91.1893 38.2672C90.1167 45.9511 96.329 51.1148 106.65 51.1148C110.188 51.1148 113.156 50.2164 115.526 48.7561L115.357 49.8858C115.357 49.8858 115.271 51.9689 113.372 53.5952C111.393 55.2894 107.31 57.4101 97.7367 57.4101L96.5139 65.8747C107.78 65.8747 115.908 63.616 120.803 59.4253C125.087 55.7578 125.609 51.7219 125.654 50.3256L129.239 25.9954L118.922 26.0082Z" fill="#7AB800"/>
<path fill-rule="evenodd" clip-rule="evenodd" d="M116.291 0C99.1307 0 87.8865 6.69067 77.6299 15.643C62.712 16.7131 52.7239 26.161 55.0811 24.8798C61.4947 20.8707 68.6221 18.6501 79.1403 18.6501C79.6415 18.6501 92.8577 3.40284 116.025 3.40284C128.925 3.40284 142.923 9.29254 148.959 18.9769C162.861 18.9769 173.527 26.6063 169.853 38.2496C169.39 39.608 169.688 39.6654 170.397 38.3418C171.774 35.7611 177.499 19.1368 151.459 16.4718C146.245 7.60281 131.317 0 116.291 0Z" fill="#003478"/>
</g>
<defs>
<clipPath id="clip0_7_13">
<rect width="172" height="66" fill="white"/>
</clipPath>
</defs>
</svg>
